# xmcd
#
# Track frame offsets: 
#        150
#        16456
#        32876
#        45651
#        56859
#        75293
#        90227
#        107665
#        122072
#        135921
#        151986
#        167798
#
# Disc length: 2423 seconds
#
# Revision: 0
# Processed by: cddbd v1.5.2PL0 Copyright (c) Steve Scherf et al.
# Submitted via: ExactAudioCopy v1.0b1
#
DISCID=8a09750c
DTITLE=Mark Chesnutt - Rollin With The Flow
DYEAR=2008
DGENRE=Country
TTITLE0=Things To Do In Wichita
TTITLE1=When You Love Her Like Crazy
TTITLE2=Rollin' With The Flow
TTITLE3=Going On Later On
TTITLE4=Live To Be 100
TTITLE5=When I Get This Close To You
TTITLE6=(Come On In) The Whiskey's Fine
TTITLE7=If The Devil Brought You Roses
TTITLE8=Woman
TTITLE9=Man In The Mirror
TTITLE10=Long Way To Go
TTITLE11=She Never Got Me Over You
EXTD=
EXTT0=
EXTT1=
EXTT2=
EXTT3=
EXTT4=
EXTT5=
EXTT6=
EXTT7=
EXTT8=
EXTT9=
EXTT10=
EXTT11=
PLAYORDER=
